<?xml version="1.0" encoding="utf-8"?>
<!DOCTYPE svg PUBLIC "-//W3C//DTD SVG 1.1//EN" "http://www.w3.org/Graphics/SVG/1.1/DTD/svg11.dtd">
<svg version="1.1" id="Layer_1" xmlns="http://www.w3.org/2000/svg" xmlns:xlink="http://www.w3.org/1999/xlink" x="0px" y="0px" width="60px" height="60px"
	 viewBox="-13 15.9 271.7 272.1" style="enable-background:new -13 15.9 271.7 272.1;" xml:space="preserve">
<style type="text/css">
	.st0{fill:#FCB126;}
	.st1{fill:#202865;}
	path{mix-blend-mode: multiply;}
</style>
<g>
	<path class="st0" d="M-13,15.9h271.6v75.2c0,31.2-11.2,57.7-33.6,79.5s-50.9,32.6-85.6,32.6h-33.2c-34.8,0-63.4-10.9-85.7-32.6
		C-1.8,148.8-13,122.3-13,91.1V15.9z M248.5,26H-2.9v65.1c0,28.2,10.3,52.3,31,72.2c20.6,19.8,46.6,29.8,78.1,29.8H140
		c31.1,0,57-9.9,77.6-29.8s31-44,31-72.2V26H248.5z"/>
</g>
<g>
	<path class="st1" d="M183.2,288c-31.2,0-57.7-11.2-79.5-33.5S71,203.6,71,168.8v-33.2c0-34.7,10.9-63.2,32.7-85.6
		c21.8-22.5,48.3-33.7,79.5-33.7h75.2V288L183.2,288L183.2,288z M183.2,26.4c-28.2,0-52.3,10.3-72.2,31C91.1,78,81.1,103.9,81.1,135
		v33.8c0,31.5,10,57.5,29.9,78.2c19.9,20.6,44,31,72.2,31h65.1V26.4H183.2z"/>
</g>
<g>
	<path class="st0" d="M258.7,287.8H-13v-75.2c0-31.2,11.2-57.7,33.6-79.5s50.9-32.6,85.6-32.6h33.2c34.8,0,63.4,10.9,85.7,32.7
		s33.5,48.3,33.5,79.5v75.1H258.7z M-2.9,277.7h251.5v-65.1c0-28.2-10.3-52.3-31-72.2c-20.6-19.9-46.7-29.9-78.2-29.9h-33.8
		c-31.1,0-57,10-77.6,29.9s-31,44-31,72.2L-2.9,277.7L-2.9,277.7z"/>
</g>
<g>
	<path class="st1" d="M-12.9,288V16.3h75.2c31.2,0,57.7,11.2,79.5,33.6s32.7,50.9,32.7,85.6v33.2c0,34.8-10.9,63.4-32.7,85.7
		s-48.3,33.5-79.5,33.5h-75.2V288z M-2.8,26.4v251.5h65.1c28.2,0,52.3-10.3,72.2-31c19.9-20.6,29.9-46.7,29.9-78.2v-33.8
		c0-31.1-10-57-29.9-77.6s-44-31-72.2-31H-2.8V26.4z"/>
</g>
</svg>
